<svg id="Layer_1" data-name="Layer 1" xmlns="http://www.w3.org/2000/svg" viewBox="0 0 600 123"><title>5-stars</title><polygon points="55.48 94.63 21.89 113.24 29.21 75.54 1.13 49.34 39.24 44.65 55.48 9.84 71.72 44.65 109.84 49.34 81.76 75.54 89.08 113.24 55.48 94.63"/><path d="M55.48,11,71.15,44.61l.24.5.55.07,36.78,4.52L81.62,75l-.4.38.1.55,7.06,36.37L56,94.33l-.49-.27-.48.27-32.42,18,7.06-36.37.11-.55-.4-.38L2.25,49.7,39,45.18l.55-.07.23-.5L55.48,11m0-2.37L38.91,44.18,0,49,28.66,75.71,21.19,114.2l34.29-19,34.29,19L82.3,75.71,111,49,72.06,44.18,55.48,8.66Z"/><polygon points="151.47 75.54 123.38 49.34 161.5 44.65 177.74 9.84 193.98 44.65 232.1 49.34 204.02 75.54 211.34 113.24 177.74 94.63 144.15 113.24 151.47 75.54"/><path d="M177.74,11l15.67,33.58.24.5.55.07L231,49.7,203.88,75l-.4.38.1.55,7.06,36.37-32.41-18-.49-.27-.48.27-32.42,18,7.06-36.37.11-.55L151.6,75,124.51,49.7l36.78-4.52.55-.07.23-.5L177.74,11m0-2.37L161.17,44.18,122.26,49l28.66,26.74-7.47,38.49,34.29-19,34.29,19-7.47-38.49L233.23,49l-38.91-4.79L177.74,8.66Z"/><polygon points="273.72 75.54 245.64 49.34 283.76 44.65 300 9.84 316.24 44.65 354.36 49.34 326.28 75.54 333.6 113.24 300 94.63 266.4 113.24 273.72 75.54"/><path d="M300,11l15.67,33.58.23.5.55.07,36.78,4.52L326.14,75l-.41.38.11.55,7.06,36.37-32.42-18-.48-.27-.48.27-32.42,18,7.06-36.37.11-.55-.41-.38L246.77,49.7l36.78-4.52.55-.07.23-.5L300,11m0-2.37L283.42,44.18,244.52,49l28.66,26.74-7.47,38.49L300,95.2l34.29,19-7.47-38.49L355.48,49l-38.9-4.79L300,8.66Z"/><polygon points="422.26 94.63 388.66 113.24 395.98 75.54 367.9 49.34 406.02 44.65 422.26 9.84 438.5 44.65 476.62 49.34 448.54 75.54 455.85 113.24 422.26 94.63"/><path d="M422.26,11l15.67,33.58.23.5.55.07,36.78,4.52L448.4,75l-.41.38.11.55,7.06,36.37-32.42-18-.48-.27-.49.27-32.41,18,7.06-36.37.1-.55-.4-.38L369,49.7l36.78-4.52.55-.07.24-.5L422.26,11m0-2.37L405.68,44.18,366.77,49l28.67,26.74L388,114.2l34.29-19,34.29,19-7.47-38.49L477.74,49l-38.91-4.79L422.26,8.66Z"/><polygon points="544.52 94.63 510.92 113.24 518.24 75.54 490.16 49.34 528.28 44.65 544.52 9.84 560.76 44.65 598.88 49.34 570.79 75.54 578.11 113.24 544.52 94.63"/><path d="M544.52,11l15.67,33.58.23.5.55.07,36.78,4.52L570.65,75l-.4.38.11.55,7.06,36.37L545,94.33l-.48-.27-.49.27-32.41,18,7.06-36.37.1-.55-.4-.38L491.28,49.7l36.78-4.52.55-.07.24-.5L544.52,11m0-2.37L527.94,44.18,489,49,517.7,75.71l-7.47,38.49,34.29-19,34.29,19-7.47-38.49L600,49l-38.91-4.79L544.52,8.66Z"/></svg>