<svg id="Layer_1" data-name="Layer 1" xmlns="http://www.w3.org/2000/svg" viewBox="0 0 553 175"><defs><style>.cls-1{fill:#c1272d;}.cls-2{fill:#fff;}</style></defs><title>Gick-logo</title><g id="oe06v5.tif"><path class="cls-1" d="M510,107.29l9.59,13.56-27.55.3c3.34-5.3,5.66-9.05,9.81-15.69-10.63,2.41-18.28,4.13-25.93,5.85q2.87,8.89,5.76,17.9c-8.12.08-15.74.17-24.9.28,3.45-5.5,5.85-9.3,8.26-13.15-4.4-1.75-9.95-2.16-11.67-5-5.8-9.32-14.57-9.46-23.54-9.76-10.63-.38-21.32-.79-32-.43-73.8,2.35-73.33,3.93-101.87,5.9L285.92,92.81l14-21q65.69,0,131.36-.06c5.77-1.5,11.48-3.58,17-5.6,5.22-1.91,9.4-6.67,14.49-10.47-1.48-2.6-3.61-6.37-7-12.38l26.87,2.32L471.78,62.82c10.68,1.48,19,2.6,30.2,4.16L490.55,48.36c10.47.85,18.37,1.51,28.05,2.27-3.91,5.58-6.73,9.6-8.78,12.55l23,7.4c.05,5.12.11,10.25.19,15.36C529.42,97.18,525.26,107.84,510,107.29Z"/></g><path class="cls-2" d="M307.33,92V85H306V82.89h1.34v-3h2.72v3h1.31V85h-1.31v7Z"/><path class="cls-2" d="M321.69,92V87c0-1.18-.46-1.86-1.46-1.86s-1.52.61-1.52,1.74V92H316V79.86h2.72v3.9a2.56,2.56,0,0,1,2.36-1.18c2.08,0,3.34,1.31,3.34,3.69V92Z"/><path class="cls-2" d="M332,88.27A2,2,0,0,0,334.12,90a1.92,1.92,0,0,0,1.66-.85h2.79a4.86,4.86,0,0,1-4.45,3.14,4.85,4.85,0,1,1,4.76-4.74,3.48,3.48,0,0,1-.07.73Zm4.17-1.84a2,2,0,0,0-2.08-1.56A2,2,0,0,0,332,86.43Z"/><path class="cls-2" d="M359,90.92a2.73,2.73,0,0,1-2.55,1.36,4.55,4.55,0,0,1-4.57-4.79,4.64,4.64,0,0,1,4.57-4.9A2.88,2.88,0,0,1,359,83.74h0v-.85h2.72V91a6.2,6.2,0,0,1-.49,2.79c-.66,1.26-2.44,2.23-4.72,2.23-2.57,0-4.25-1.46-4.48-3.2h3.15a1.61,1.61,0,0,0,1.59.9c1.38,0,2.22-.9,2.22-2.56Zm0-3.44a2.21,2.21,0,1,0-2.23,2.26A2.15,2.15,0,0,0,359.05,87.48Z"/><path class="cls-2" d="M367.32,81.92V79.86H370v2.06Zm0,10.07v-9.1H370V92Z"/><path class="cls-2" d="M382.14,90.92a2.71,2.71,0,0,1-2.54,1.36A4.55,4.55,0,0,1,375,87.49a4.64,4.64,0,0,1,4.57-4.9,2.89,2.89,0,0,1,2.53,1.15h0v-.85h2.72V91a6.2,6.2,0,0,1-.49,2.79c-.66,1.26-2.45,2.23-4.72,2.23-2.58,0-4.25-1.46-4.48-3.2h3.15a1.61,1.61,0,0,0,1.59.9c1.37,0,2.21-.9,2.21-2.56Zm0-3.44a2.21,2.21,0,1,0-2.23,2.26A2.15,2.15,0,0,0,382.16,87.48Z"/><path class="cls-2" d="M394.13,85.45c0-.53-.39-.69-.84-.69s-.78.26-.78.6c0,.5.44.74,1.7,1.07,2.17.57,2.87,1.44,2.87,2.77,0,1.9-1.64,3.1-3.7,3.1a3.42,3.42,0,0,1-3.71-3h2.71a.93.93,0,0,0,1,.84c.48,0,.95-.28.95-.71s-.31-.77-1.67-1.19c-2.29-.71-2.9-1.61-2.9-2.67,0-1.81,1.69-3,3.52-3s3.36,1.08,3.49,2.87Z"/><path class="cls-2" d="M410.4,92V79.86h2.72V92Z"/><path class="cls-2" d="M418.54,81.92V79.86h2.72v2.06Zm0,10.07v-9.1h2.72V92Z"/><path class="cls-2" d="M430.54,85.45c0-.53-.4-.69-.84-.69s-.79.26-.79.6c0,.5.45.74,1.71,1.07,2.16.57,2.87,1.44,2.87,2.77,0,1.9-1.64,3.1-3.71,3.1a3.4,3.4,0,0,1-3.7-3h2.7a.94.94,0,0,0,1,.84c.47,0,.95-.28.95-.71s-.32-.77-1.67-1.19c-2.3-.71-2.91-1.61-2.91-2.67,0-1.81,1.69-3,3.53-3s3.36,1.08,3.49,2.87Z"/><path class="cls-2" d="M438.84,92V85H437.5V82.89h1.34v-3h2.72v3h1.31V85h-1.31v7Z"/><path class="cls-2" d="M462.84,92V91h0a2.92,2.92,0,0,1-2.67,1.3,4.58,4.58,0,0,1-4.56-4.87,4.65,4.65,0,0,1,4.56-4.85,3.07,3.07,0,0,1,2.67,1.28h0v-1h2.72V92Zm0-4.56a2.3,2.3,0,0,0-2.31-2.31,2.32,2.32,0,1,0,2.31,2.31Z"/><path class="cls-2" d="M471.32,95V82.89h2.56v1h.05a3.5,3.5,0,0,1,2.85-1.31c2.59,0,4.43,2.11,4.43,5a4.53,4.53,0,0,1-4.43,4.77,3.52,3.52,0,0,1-2.73-1.13V95Zm7.17-7.57a2.28,2.28,0,1,0-2.28,2.31A2.29,2.29,0,0,0,478.49,87.45Z"/><path class="cls-2" d="M486.2,95V82.89h2.56v1h.05a3.5,3.5,0,0,1,2.85-1.31c2.59,0,4.42,2.11,4.42,5a4.53,4.53,0,0,1-4.42,4.77,3.55,3.55,0,0,1-2.74-1.13V95Zm7.16-7.57a2.28,2.28,0,1,0-2.28,2.31A2.29,2.29,0,0,0,493.36,87.45Z"/><polygon class="cls-2" points="290.1 153.27 261.05 107.26 261.05 153.27 227.3 153.27 227.3 32.73 261.05 32.73 261.05 80.94 292.4 32.73 327.2 32.73 287.3 92.8 329.85 153.27 290.1 153.27"/><path class="cls-1" d="M295.09,107.34,284.88,92.83,299.06,71.5l24.42-36.77h-30l-34.1,52.44h-.33V34.73H229.3V151.27h29.75V100.88h.33l31.83,50.39H326Z"/><path class="cls-2" d="M202.53,135.52A42.55,42.55,0,0,1,172,123.23c-8.49-8.28-12.62-18.55-12.62-31.39,0-22.42,19.33-41.36,42.2-41.36,11.38,0,20.45,3.2,28.53,10.08,7.76,6.65,12.42,14.29,13.86,22.71l.4,2.34H219.75l-.5-1.27c-3-7.62-9.54-12.35-17-12.35-10.77,0-18.89,8.94-18.89,20.8,0,12.09,8.16,21.21,19,21.21,7.4,0,13.27-4.16,17-12l.54-1.15h24.74l-.64,2.5A42.31,42.31,0,0,1,202.53,135.52Z"/><path class="cls-1" d="M221.11,83.61C217.73,75.06,210.34,70,202.22,70c-12.46,0-20.89,10.66-20.89,22.8,0,12.66,8.64,23.21,21,23.21,7.92,0,14.67-4.43,18.79-13.19H242a41.18,41.18,0,0,1-68.59,19c-8.45-8.23-12-18.15-12-30,0-20.69,17.83-39.36,40.2-39.36,10.77,0,19.42,3,27.23,9.6,7.39,6.33,11.82,13.51,13.19,21.53Z"/><rect class="cls-2" x="142.12" y="49.74" width="25.07" height="86.53"/><path class="cls-1" d="M144.12,134.26V51.74h21.07v82.52Z"/><path class="cls-2" d="M77.57,164.47c-39.83,0-71.95-30.85-73.14-70.23a69.27,69.27,0,0,1,20.4-51.92C38.18,29.1,56.4,21.49,76.15,20.9c.69,0,1.39,0,2.08,0,30.6,0,60,20.18,68.45,46.94l.79,2.52L105.2,71.6l-.6-1C98.42,60.56,88.75,55,77.36,55l-1.1,0A33.37,33.37,0,0,0,51.64,66.55c-6.06,7-9.22,16.44-8.92,26.54.66,21.93,15,37.25,34.77,37.25.41,0,.81,0,1.22,0,14.25-.42,24.58-7.11,28.76-18.47L68.19,113l-.94-31.4,83.83-2.51.29,9.62A75.6,75.6,0,0,1,133.47,140c-9.26,10.71-26.07,23.65-53.56,24.48Q78.74,164.47,77.57,164.47Z"/><path class="cls-1" d="M149.37,88.8c1.08,36.11-24.34,72.28-69.52,73.64C40.11,163.63,7.61,133.55,6.43,94.18,5.21,53.54,37.2,24.07,76.21,22.9c30.29-.91,60.12,18.71,68.56,45.51L106.3,69.57C99.62,58.69,89.08,52.65,76.2,53c-21.59.65-36.12,18.52-35.48,40.11.67,22.32,15.37,39.85,38.05,39.17,16-.48,27.7-8.64,31.46-22.55L70.13,111l-.82-27.4,79.83-2.39Z"/></svg>